<?xml version="1.0" encoding="UTF-8" standalone="no"?>
<!-- Generator: Adobe Illustrator 19.2.1, SVG Export Plug-In . SVG Version: 6.00 Build 0)  -->

<svg
   xmlns:dc="http://purl.org/dc/elements/1.1/"
   xmlns:cc="http://creativecommons.org/ns#"
   xmlns:rdf="http://www.w3.org/1999/02/22-rdf-syntax-ns#"
   xmlns:svg="http://www.w3.org/2000/svg"
   xmlns="http://www.w3.org/2000/svg"
   xmlns:sodipodi="http://sodipodi.sourceforge.net/DTD/sodipodi-0.dtd"
   xmlns:inkscape="http://www.inkscape.org/namespaces/inkscape"
   version="1.1"
   id="Calque_1"
   x="0px"
   y="0px"
   viewBox="0 0 297.25 105.6"
   xml:space="preserve"
   inkscape:version="0.91 r13725"
   sodipodi:docname="xeus.svg"
   width="297.25"
   height="105.6"><metadata
     id="metadata13"><rdf:RDF><cc:Work
         rdf:about=""><dc:format>image/svg+xml</dc:format><dc:type
           rdf:resource="http://purl.org/dc/dcmitype/StillImage" /><dc:title /></cc:Work></rdf:RDF></metadata><defs
     id="defs11" /><sodipodi:namedview
     pagecolor="#ffffff"
     bordercolor="#666666"
     borderopacity="1"
     objecttolerance="10"
     gridtolerance="10"
     guidetolerance="10"
     inkscape:pageopacity="0"
     inkscape:pageshadow="2"
     inkscape:window-width="1640"
     inkscape:window-height="725"
     id="namedview9"
     showgrid="false"
     inkscape:zoom="1.888"
     inkscape:cx="93.900948"
     inkscape:cy="25.541221"
     inkscape:window-x="155"
     inkscape:window-y="82"
     inkscape:window-maximized="0"
     inkscape:current-layer="Calque_1"
     fit-margin-top="0"
     fit-margin-left="0"
     fit-margin-right="0"
     fit-margin-bottom="0" /><style
     type="text/css"
     id="style3">
	.st0{fill:#7DDB85;}
	.st1{fill:#D8F8D7;}
</style><path
     style="fill:#5555ff;fill-opacity:1"
     d="M 11.330078 0.099609375 C 11.627703 0.16652493 11.931557 0.2338657 12.199219 0.30078125 C 17.799219 2.1007812 22.4 4.8 22.5 5 C 26.9 8 30.600391 11.9 33.400391 16.5 C 34.400391 17.9 45.100781 34.099219 52.800781 45.699219 C 51.000781 48.399219 49.399609 50.900781 48.099609 52.800781 C 47.999609 52.600781 47.900781 52.500781 47.800781 52.300781 C 39.900781 40.400781 25.900391 19.400391 24.900391 17.900391 C 22.900391 15.000391 20.3 12.299219 17 10.199219 C 17 10.199219 13.5 7.9 9 6.5 C 7.2 5.9 4.1 5.4003906 0 4.9003906 L 0 100.80078 C 4.1 100.30078 7.2 99.799219 9 99.199219 C 13.5 97.799219 17 95.5 17 95.5 C 20.4 93.3 23.000391 90.599221 24.900391 87.699219 C 25.900391 86.199219 39.900781 65.200781 47.800781 53.300781 C 54.400781 43.300781 70.999219 18.299609 72.199219 16.599609 C 74.999219 11.999609 78.699609 8.0996094 83.099609 5.0996094 C 83.199609 4.8996094 87.800391 2.2003907 93.400391 0.40039062 L 94.599609 0.099609375 L 11.330078 0.099609375 z M 105.69922 4.9003906 C 101.59922 5.4003906 98.499219 5.9 96.699219 6.5 C 91.999219 7.9 88.599609 10.199219 88.599609 10.199219 C 85.299609 12.299219 82.699219 15.000391 80.699219 17.900391 C 79.699219 19.400391 65.700781 40.400781 57.800781 52.300781 C 51.200781 62.300781 34.600391 87.3 33.400391 89 C 30.600391 93.600002 26.9 97.499998 22.5 100.5 C 22.4 100.7 17.799219 103.39922 12.199219 105.19922 L 11 105.5 L 94.199219 105.5 L 93.400391 105.30078 C 87.800391 103.50078 83.199609 100.79961 83.099609 100.59961 C 78.699609 97.599609 74.999219 93.699609 72.199219 89.099609 C 71.199219 87.699609 60.500781 71.500391 52.800781 59.900391 C 54.600781 57.200391 56.2 54.700781 57.5 52.800781 C 57.6 53.000781 57.699219 53.100781 57.699219 53.300781 C 65.599219 65.200781 79.599609 86.199219 80.599609 87.699219 C 82.599609 90.599219 85.2 93.300391 88.5 95.400391 C 88.5 95.400391 92 97.699609 96.5 99.099609 C 98.3 99.699609 101.4 100.19922 105.5 100.69922 L 105.5 105.5 L 105.69922 105.5 L 105.69922 4.9003906 z M 229.69922 26.5 L 229.69922 63.800781 C 229.69922 80.400781 227.19961 92 211.59961 92 L 210.19922 92 C 194.49922 92 192.09961 80.400781 192.09961 63.800781 L 192.09961 26.699219 C 190.19961 27.699219 188.29922 28.799219 186.69922 30.199219 L 186.69922 65.5 C 186.69922 80.2 189.40078 96.900391 209.30078 96.900391 L 212.30078 96.900391 C 232.00078 96.900391 234.89961 80.200781 235.09961 65.300781 L 235.09961 30 C 233.49961 28.6 231.59922 27.5 229.69922 26.5 z M 145.69922 26.599609 C 133.39922 26.599609 118.90039 31.100391 118.90039 61.900391 C 118.90039 90.500393 131.40078 96.900391 146.80078 96.900391 C 155.10078 96.900391 162.29961 95.399609 168.59961 91.599609 L 166.59961 87.099609 C 160.29961 90.699611 154.30039 92.099609 146.90039 92.099609 C 134.70039 92.099609 125.10078 87.699609 124.30078 66.099609 L 124.19922 63.400391 L 171.19922 63.5 L 171.30078 63.599609 L 171.30078 61.800781 C 171.30078 35.300781 161.59922 26.599609 145.69922 26.599609 z M 274.84961 26.599609 C 264.04961 26.599609 254.05078 31.499609 254.05078 44.099609 C 254.05078 56.699609 262.95039 60.500391 273.65039 63.400391 C 283.75039 66.200391 292.05078 68.3 292.05078 77.5 C 292.05078 88.5 284.05 92.099609 275.25 92.099609 C 267.35 92.099609 259.74922 90.000783 253.94922 86.300781 L 251.75 90.599609 C 258.45 95.099609 266.65078 96.800781 275.55078 96.800781 C 287.15078 96.800781 297.25 91.700002 297.25 77.5 C 297.25 64.8 287.44961 61.899609 275.84961 58.599609 C 265.34961 55.699609 259.15039 53.000781 259.15039 44.300781 C 259.15039 34.300781 266.04922 31.400391 274.94922 31.400391 C 280.74922 31.400391 286.35 32.300781 291.25 34.800781 L 293.25 30.300781 C 287.35 27.300781 281.04961 26.599609 274.84961 26.599609 z M 145.59961 31.400391 C 157.69961 31.400391 165.90039 37.799609 165.90039 58.599609 L 124 58.599609 C 124.5 35.599609 134.59961 31.400391 145.59961 31.400391 z "
     id="path4143" /><path
     class="st1"
     d="m 57.500003,52.799998 c -1.3,1.9 -2.9,4.4 -4.7,7.1 7.7,11.6 18.4,27.8 19.4,29.2 2.8,4.6 6.5,8.5 10.9,11.500002 0.1,0.2 4.7,2.9 10.3,4.7 0.4,0.1 0.8,0.2 1.2,0.3 l 10.899997,0 0,-4.9 c -4.1,-0.5 -7.199997,-1.000002 -8.999997,-1.600002 -4.5,-1.4 -8,-3.7 -8,-3.7 -3.3,-2.1 -5.9,-4.8 -7.9,-7.7 -1,-1.5 -15,-22.5 -22.9,-34.4 l 0,0 c 0,-0.2 -0.1,-0.3 -0.2,-0.5 M 10.9,-1.5258789e-6 l -10.9,0 L 0,4.8999985 c 4.1,0.5 7.2,1 9,1.6 4.5,1.4 8,3.6999995 8,3.6999995 3.300003,2.1 5.900003,4.8 7.900003,7.7 1,1.5 15,22.5 22.9,34.4 l 0,0 c 0.1,0.2 0.2,0.3 0.3,0.5 1.3,-1.9 2.9,-4.4 4.7,-7.1 -7.7,-11.6 -18.4,-27.8 -19.4,-29.2 -2.8,-4.6 -6.5,-8.4999995 -10.9,-11.4999995 -0.1,-0.2 -4.700003,-2.9 -10.300003,-4.70000003 -0.4,-0.1 -0.8,-0.2 -1.3,-0.2999999958789"
     id="path7-3"
     inkscape:connector-curvature="0"
     style="fill:#5555ff;fill-opacity:0.27843139" /></svg>