<?xml version="1.0" encoding="utf-8"?>
<!-- Generator: Adobe Illustrator 21.1.0, SVG Export Plug-In . SVG Version: 6.00 Build 0)  -->
<svg version="1.1" id="Calque_1" xmlns="http://www.w3.org/2000/svg" xmlns:xlink="http://www.w3.org/1999/xlink" x="0px" y="0px"
	 viewBox="0 0 262.5 56.6" style="enable-background:new 0 0 262.5 56.6;" width="841.346154" height="181.410256" xml:space="preserve">
<style type="text/css">
	.st0{fill:#8359B5;}
	.st1{opacity:0.28;fill:#8359B5;}
</style>
<g>
	<path class="st0" d="M11,45.1c0.4-0.7,6.6-9.9,10.1-15.3c0-0.1,0.1-0.1,0.1-0.2c0-0.1-0.1-0.1-0.1-0.2c-3.5-5.3-9.7-14.6-10.1-15.3
		c-0.9-1.3-2-2.5-3.5-3.4c0,0-1.5-1-3.5-1.6C3.2,8.9,1.8,8.7,0,8.5v42.4c1.8-0.2,3.2-0.4,4-0.7c2-0.6,3.5-1.6,3.5-1.6
		C9,47.6,10.2,46.4,11,45.1z M39.2,10.8c-1.5,0.9-2.6,2.1-3.5,3.4c-0.4,0.7-6.6,9.9-10.1,15.3c0,0.1-0.1,0.1-0.1,0.2
		c0,0.1,0.1,0.1,0.1,0.2c3.5,5.3,9.7,14.6,10.1,15.3c0.9,1.3,2,2.5,3.5,3.4c0,0,1.5,1,3.5,1.6c0.8,0.3,2.2,0.5,4,0.7V53h-4.8
		c-0.2,0-0.4-0.1-0.5-0.1c-2.5-0.8-4.5-2-4.6-2.1c-2-1.3-3.6-3.1-4.9-5.1c-0.4-0.6-5.2-7.8-8.6-12.9c-3.4,5.1-8.2,12.3-8.6,12.9
		c-1.2,2-2.9,3.8-4.9,5.1c0,0.1-2.1,1.3-4.6,2.1C5.2,53,5,53,4.9,53h41.9V8.5c-1.8,0.2-3.2,0.4-4,0.7C40.7,9.8,39.2,10.8,39.2,10.8z
		 M9.9,8.6c2,1.3,3.6,3.1,4.9,5.1c0.4,0.6,5.2,7.8,8.6,12.9c3.4-5.1,8.2-12.3,8.6-12.9c1.2-2,2.9-3.8,4.9-5.1c0-0.1,2.1-1.3,4.6-2.1
		c0.2,0,0.4-0.1,0.5-0.1h-37c0.2,0,0.4,0.1,0.5,0.2C7.8,7.3,9.9,8.5,9.9,8.6z"/>
	<path class="st1" d="M25.5,29.7c-0.6,0.8-1.3,1.9-2.1,3.1c3.4,5.1,8.2,12.3,8.6,12.9c1.2,2,2.9,3.8,4.9,5.1c0,0.1,2.1,1.3,4.6,2.1
		c0.2,0,0.4,0.1,0.5,0.1h4.8v-2.2c-1.8-0.2-3.2-0.4-4-0.7c-2-0.6-3.5-1.6-3.5-1.6c-1.5-0.9-2.6-2.1-3.5-3.4
		c-0.4-0.7-6.6-9.9-10.1-15.3l0,0C25.6,29.8,25.5,29.7,25.5,29.7 M4.8,6.3H0v2.2c1.8,0.2,3.2,0.4,4,0.7c2,0.6,3.5,1.6,3.5,1.6
		c1.5,0.9,2.6,2.1,3.5,3.4c0.4,0.7,6.6,9.9,10.1,15.3l0,0c0,0.1,0.1,0.1,0.1,0.2c0.6-0.8,1.3-1.9,2.1-3.1
		c-3.4-5.1-8.2-12.3-8.6-12.9c-1.2-2-2.9-3.8-4.9-5.1c0-0.1-2.1-1.3-4.6-2.1C5.2,6.4,5,6.4,4.8,6.3"/>
	<path class="st0" d="M230.6,18.4h7.9l-1,2h-6.8c0,0,0,10.9,0,11.6c0,1.1,0.2,2.2,0.7,3.3c0,0,0.5,1.1,1.3,2.1
		c0.3,0.5,1.1,1.1,2.2,1.9l-1,2c-1.4-1-2.4-1.8-2.9-2.4c-1-1.2-1.7-2.6-1.7-2.7c-0.6-1.4-0.9-3.1-0.8-4.8c0-0.9,0-11,0-11h-6.8l-1-2
		h7.9v-7.9h2.2V18.4z M171.3,16.5c3.7,0,7.6,0.5,10.9,1.6V46c0,6.5-3,10.7-10,10.7c-3,0-5.8-0.4-8.3-1.6l0.8-2.1
		c2.3,1.1,4.8,1.6,7.3,1.6c5.8,0,7.9-3.6,7.9-8.7v-4c-2,3.8-4.7,5.8-9.9,5.8c-7.5,0-10.5-5.8-10.5-15.6
		C159.4,19,165.4,16.5,171.3,16.5z M179.8,19.8c-2.6-1-5.5-1.2-8.6-1.2c-5.1,0-9.5,2.1-9.5,13.5c0,8.4,2,13.5,8.5,13.5
		c5.1,0,7.3-2.6,9.6-7.2V19.8z M214.9,32v0.8l0,0l-21,0l0,1.2c0.4,9.7,4.6,11.6,10.1,11.6c3.3,0,6-0.6,8.8-2.2l0.9,2
		c-2.8,1.7-6,2.4-9.7,2.4c-6.9,0-12.5-2.9-12.5-15.6c0-13.8,6.5-15.8,12-15.8C210.6,16.2,214.9,20.1,214.9,32z M212.5,30.5
		c0-9.3-3.7-12.2-9.1-12.2c-4.9,0-9.4,1.9-9.7,12.2H212.5z M97.3,32.9c0,7.4-1.1,12.6-8.1,12.6h-0.6c-7,0-8.1-5.2-8.1-12.6V18.1
		L78,18.2v14.8c0,7.4-1.1,12.6-8.1,12.6h-0.6c-7,0-8.1-5.2-8.1-12.6V16.3c-0.8,0.4-1.7,0.9-2.4,1.6v15.8c0,6.6,1.3,14.1,10.1,14.1
		h1.3c5.1,0,7.7-2.5,9-5.9c1.3,3.4,3.8,5.9,9,5.9h1.3c8.9,0,10.1-7.5,10.1-14V17.9c-0.7-0.6-1.6-1.1-2.4-1.6V32.9z M111.2,47.8
		l2.4-1.3V17h-2.4V47.8z M111.2,12.7h2.4v-2.5h-2.4V12.7z M252.9,30.5c-4.7-1.3-7.5-2.5-7.5-6.4c0-4.5,3.1-5.8,7.1-5.8
		c2.6,0,5.1,0.4,7.3,1.5l0.9-2c-2.6-1.3-5.5-1.7-8.2-1.7c-4.8,0-9.3,2.2-9.3,7.8c0,5.6,4,7.3,8.8,8.6c4.5,1.2,8.2,2.1,8.2,6.3
		c0,5-3.6,6.5-7.5,6.5c-2.6,0-5.2-0.5-7.5-1.5l-1,2c2.5,1.2,5.5,1.7,8.6,1.7c5.2,0,9.7-2.3,9.7-8.6
		C262.5,33.2,258.1,31.9,252.9,30.5z M147.7,0.5c0.8-0.3,1.5-0.4,2.4-0.5v47.4c-0.8-0.1-1.6-0.3-2.4-0.5v-4c-2,3.1-5.2,4.6-10.1,4.6
		c-9,0-12.5-5-12.5-15.6c0-10.6,3.5-15.7,12.5-15.7c4.9,0,8.2,1.5,10.1,4.6V0.5z M147.7,31.8c0-8.1-1.7-13.5-10.1-13.5
		c-8.4,0-10.1,5.4-10.1,13.5c0,8.1,1.7,13.5,10.1,13.5C146,45.4,147.7,40,147.7,31.8z"/>
</g>
</svg>
